<?xml version="1.0" encoding="UTF-8" standalone="no"?>
<svg width="100%" height="100%" viewBox="0 0 162 612" version="1.1" xmlns="http://www.w3.org/2000/svg" xmlns:xlink="http://www.w3.org/1999/xlink" xml:space="preserve" xmlns:serif="http://www.serif.com/">
  <defs>
    <mask id="mask1" x="0" y="0" width="100" height="100" >
      <path 
       fill="#ffffff"
       d="M59.34,0.756c-4.7,1.2 -5.3,1.8 -4.6,4.9c0.4,1.5 0.6,5.6 0.5,9.2c-0.6,14.3 -0.3,30 0.6,31.7c0.6,1.3 0.5,2.4 -0.6,3.8c-1.2,1.7 -1.4,7.2 -1.2,34.7c0.3,29 0.1,32.9 -1.3,34.5c-0.9,1 -2,3 -2.3,4.6c-0.4,1.5 -2.7,4.4 -5.1,6.3c-3.3,2.7 -4.4,4.4 -4.4,6.4c0,3 -1.1,4.1 -18.5,18.3c-13.3,11 -16.5,13.8 -16.5,15c0,0.6 -0.7,1.9 -1.6,2.9c-1.2,1.3 -1.7,4 -1.9,9.8c-0.1,4.5 -0.7,8.6 -1.3,9.2c-1.6,1.6 -1.5,3.3 0.2,4.7c1.5,1.3 2.2,20.6 3.1,85.6c0.3,19.8 0.7,47 1,60.5c0.5,24.8 2.2,130 2.9,181.5l0.4,28l-3.2,5c-3.1,4.9 -3.1,5.2 -2.9,16.6c0.2,10.8 0.9,15.6 3.3,25c0.9,3.4 1.2,3.6 7.7,4.8c3.9,0.8 7.8,2.2 9,3.3c3.5,3.3 16.3,4.2 58.8,4.2c41.9,0.1 55.2,-0.9 59,-4.4c1.8,-1.6 8.2,-3.4 12.5,-3.5c4.9,-0.1 6.7,-6.2 7.9,-27c0.8,-11.6 0.7,-13.4 -1,-16.7c-1,-2 -2.4,-3.8 -3.1,-4c-1,-0.4 -1.2,-10.5 -0.9,-47.4c0.1,-25.8 0.4,-47.1 0.6,-47.4c0.1,-0.3 0.6,-23.5 0.9,-51.5c0.4,-28.1 0.9,-52.8 1.1,-55c0.2,-2.2 0.7,-25.2 1.1,-51c0.3,-25.9 1,-60.3 1.5,-76.5c1.2,-43.9 1.1,-49.9 -1,-53.5c-1.5,-2.6 -8.1,-8.7 -22,-20.3c-12.7,-10.6 -15.6,-13.7 -15.3,-16.3c0.2,-2 -0.7,-3.4 -4.2,-6.3c-2.6,-2.1 -4.6,-4.3 -4.6,-5.1c0,-0.7 -1.2,-2.8 -2.7,-4.6l-2.8,-3.3l0.3,-32.5c0.3,-27.6 0.1,-32.9 -1.1,-34.6c-1.1,-1.4 -1.2,-2.5 -0.5,-3.9c1.4,-2.6 1.5,-26.3 0.1,-27.7c-0.9,-0.9 -0.9,-1.6 0,-2.9c0.8,-1.4 0.8,-2.2 -0.2,-3.4c-0.9,-1.1 -1,-2 -0.3,-2.9c0.5,-0.6 1.2,-2.5 1.4,-4.2c0.3,-2.6 -0.1,-3.1 -3.2,-4.2c-3.9,-1.3 -40.3,-1.6 -45.6,-0.4Z" />
    </mask>
  </defs>

  <rect x="1" y="1" width="100%" height="100%"
    style="stroke: none; fill: #FFF; mask: url(#mask1)"/>
</svg>